<?xml version="1.0" encoding="UTF-8"?>
<svg id="Layer_6_Outline_" data-name="Layer 6 (Outline)" xmlns="http://www.w3.org/2000/svg" viewBox="0 0 5901.87 1080">
  <defs>
    <style>
      .cls-1 {
        fill: #fff;
      }

      .cls-2 {
        fill: #507abb;
      }
    </style>
  </defs>
  <g>
    <path class="cls-1" d="M765.08,632.6v343.16s-156.29,60.83-343.81.64l343.81-343.81"/>
    <path class="cls-1" d="M649.25,727.03l-242.65,242.65s-153.53-67.5-243.56-242.65h486.21"/>
    <path class="cls-1" d="M500.58,711.9H157.42s-60.83-156.29-.64-343.81l343.81,343.81"/>
    <path class="cls-1" d="M406.15,596.08l-242.65-242.65s67.5-153.53,242.65-243.56v486.21"/>
    <path class="cls-1" d="M421.28,447.4V104.24s156.29-60.83,343.81-.64l-343.81,343.81"/>
    <path class="cls-1" d="M537.1,352.97l242.65-242.65s153.53,67.5,243.56,242.65h-486.21"/>
    <path class="cls-1" d="M685.78,368.1h343.16s60.83,156.29.64,343.81l-343.81-343.81"/>
    <path class="cls-1" d="M780.21,483.92l242.65,242.65s-67.5,153.53-242.65,243.56v-486.21"/>
  </g>
  <g>
    <path class="cls-1" d="M489.01,460.06v127.32h-34.52v-127.32h34.52ZM503.54,587.38h-34.86v-29.39h33.5c6.32,0,11.72-1,16.19-2.99,4.47-1.99,7.88-5.48,10.21-10.47,2.33-4.98,3.5-11.89,3.5-20.72s-1.2-15.82-3.59-20.81c-2.39-4.98-5.88-8.49-10.47-10.51-4.59-2.02-10.21-3.03-16.88-3.03h-32.98v-29.39h34.86c13.1,0,24.41,2.55,33.92,7.65,9.51,5.1,16.86,12.41,22.05,21.92,5.18,9.51,7.78,20.91,7.78,34.18s-2.58,24.58-7.73,34.09c-5.16,9.51-12.46,16.81-21.92,21.88-9.46,5.07-20.65,7.6-33.58,7.6Z"/>
    <path class="cls-1" d="M580.96,587.38v-127.32h54.52l11.45,39.82c.97,3.42,2.08,7.95,3.33,13.59s2.49,11.69,3.72,18.16c1.22,6.47,2.35,12.68,3.38,18.63,1.03,5.95,1.82,10.98,2.39,15.08h-6.41c.57-4.1,1.35-9.13,2.35-15.08,1-5.95,2.11-12.16,3.33-18.63,1.22-6.46,2.45-12.52,3.67-18.16,1.22-5.64,2.32-10.17,3.29-13.59l11.28-39.82h54.6v127.32h-34.86v-49.22c0-2.91.07-6.76.21-11.58.14-4.81.3-10.1.47-15.85.17-5.75.33-11.54.47-17.35.14-5.81.21-11.16.21-16.06h1.97c-1.03,5.41-2.19,11.04-3.5,16.88-1.31,5.84-2.65,11.54-4.02,17.09-1.37,5.55-2.68,10.65-3.93,15.3-1.25,4.64-2.34,8.5-3.25,11.58l-14.78,49.22h-28.71l-15.04-49.22c-.91-3.08-2.01-6.93-3.29-11.58-1.28-4.64-2.63-9.74-4.06-15.3-1.42-5.55-2.81-11.25-4.14-17.09-1.34-5.84-2.55-11.46-3.63-16.88h2.48c0,4.9.07,10.25.21,16.06.14,5.81.3,11.59.47,17.35.17,5.75.33,11.04.47,15.85.14,4.81.21,8.67.21,11.58v49.22h-34.86Z"/>
  </g>
  <g>
    <path class="cls-1" d="M1330.38,299.05v459.23h-94v-459.23h94ZM1397.88,758.28h-118.97v-81.06h114.35c29.59,0,54.4-5.24,74.43-15.72,20.03-10.48,35.08-26.71,45.15-48.7,10.07-21.98,15.1-50.13,15.1-84.45s-5.09-62.1-15.26-83.99-25.17-38.06-45-48.54c-19.83-10.48-44.44-15.72-73.82-15.72h-117.12v-81.06h122.67c46.02,0,85.63,9.2,118.82,27.58,33.18,18.39,58.71,44.69,76.59,78.9,17.88,34.21,26.81,75.16,26.81,122.82s-8.94,88.97-26.81,123.29c-17.88,34.32-43.51,60.67-76.9,79.06-33.39,18.39-73.41,27.58-120.05,27.58Z"/>
    <path class="cls-1" d="M1639.21,758.28l156.88-459.23h123.28l160.89,459.23h-104.48l-73.66-221.6c-8.84-28.56-17.83-59.84-26.97-93.85-9.15-34.01-18.75-71.14-28.82-111.42h20.65c-9.86,40.48-19.06,77.82-27.58,112.04-8.53,34.21-17,65.29-25.43,93.23l-70.89,221.6h-103.87ZM1737.22,651.64v-73.66h245.03v73.66h-245.03Z"/>
    <path class="cls-1" d="M2136.97,758.28v-459.23h94v185.54h200.03v-185.54h94.31v459.23h-94.31v-195.71h-200.03v195.71h-94Z"/>
    <path class="cls-1" d="M2608.53,758.28v-459.23h94v381.26h198.18v77.98h-292.18Z"/>
    <path class="cls-1" d="M2965.44,758.28v-459.23h94v125.44l-1.54,117.12,1.54,45.92v170.75h-94ZM3034.79,654.42v-85.68c9.45-17.05,18.7-32.77,27.74-47.16,9.04-14.38,19-28.82,29.9-43.3,10.89-14.49,23.32-30.25,37.29-47.31l112.5-131.91h114.96l-193.87,224.38-7.71-2.77-120.82,133.76ZM3250.84,758.28l-136.23-207.12,59.48-70.27,188.01,277.39h-111.26Z"/>
    <path class="cls-1" d="M3419.43,758.28v-459.23h307.29v77.98h-213.28v110.96h197.25v76.74h-197.25v115.58h213.9v77.98h-307.9Z"/>
    <path class="cls-2" d="M3802.85,758.28v-459.23h144.24l74.59,210.82c3.08,9.86,6.63,22.61,10.63,38.22,4.01,15.62,8.06,32.47,12.17,50.55,4.11,18.08,7.96,35.65,11.56,52.7,3.59,17.06,6.52,31.85,8.78,44.38h-18.18c2.26-12.33,5.19-26.97,8.78-43.92,3.59-16.95,7.45-34.47,11.56-52.55,4.11-18.08,8.17-35.03,12.17-50.85,4.01-15.82,7.55-28.66,10.63-38.53l73.35-210.82h144.86v459.23h-94.62v-216.36c0-10.07.15-22.6.46-37.6.31-15,.72-31.18,1.23-48.54.51-17.36.97-34.83,1.39-52.39.41-17.57.72-34.16.92-49.78h5.86c-3.91,17.06-8.22,34.67-12.94,52.86-4.73,18.18-9.51,35.8-14.33,52.86-4.83,17.06-9.4,32.72-13.72,47-4.31,14.29-8.01,26.15-11.1,35.6l-76.13,216.36h-79.21l-77.36-216.36c-3.08-9.45-6.78-21.21-11.1-35.29-4.32-14.07-8.89-29.64-13.72-46.69-4.83-17.05-9.71-34.67-14.64-52.86-4.93-18.18-9.55-36.01-13.87-53.47h7.09c.2,14.79.51,30.93.92,48.39.41,17.47.87,34.98,1.39,52.55.51,17.57.92,33.9,1.23,49.01.31,15.1.46,27.89.46,38.37v216.36h-93.39Z"/>
    <path class="cls-2" d="M4390.92,758.28v-459.23h307.29v77.98h-213.28v110.96h197.25v76.74h-197.25v115.58h213.9v77.98h-307.9Z"/>
    <path class="cls-2" d="M4868.34,299.05v459.23h-94v-459.23h94ZM4935.83,758.28h-118.97v-81.06h114.35c29.59,0,54.4-5.24,74.43-15.72,20.03-10.48,35.08-26.71,45.15-48.7,10.07-21.98,15.1-50.13,15.1-84.45s-5.09-62.1-15.26-83.99-25.17-38.06-45-48.54c-19.83-10.48-44.44-15.72-73.82-15.72h-117.12v-81.06h122.67c46.02,0,85.63,9.2,118.82,27.58,33.18,18.39,58.71,44.69,76.59,78.9,17.88,34.21,26.81,75.16,26.81,122.82s-8.94,88.97-26.81,123.29c-17.88,34.32-43.51,60.67-76.9,79.06-33.39,18.39-73.41,27.58-120.05,27.58Z"/>
    <path class="cls-2" d="M5324.18,299.05v459.23h-94v-459.23h94Z"/>
    <path class="cls-2" d="M5380.89,758.28l156.88-459.23h123.28l160.89,459.23h-104.48l-73.66-221.6c-8.84-28.56-17.83-59.84-26.97-93.85-9.15-34.01-18.75-71.14-28.82-111.42h20.65c-9.86,40.48-19.06,77.82-27.58,112.04-8.53,34.21-17,65.29-25.43,93.23l-70.89,221.6h-103.87ZM5478.9,651.64v-73.66h245.03v73.66h-245.03Z"/>
  </g>
</svg>