<?xml version="1.0" encoding="utf-8"?>
<!-- Generator: Adobe Adobe Illustrator 24.2.0, SVG Export Plug-In . SVG Version: 6.00 Build 0)  -->
<svg version="1.1" xmlns="http://www.w3.org/2000/svg" xmlns:xlink="http://www.w3.org/1999/xlink" x="0px" y="0px" width="1080px"
	 height="1080px" viewBox="0 0 1080 1080" style="enable-background:new 0 0 1080 1080;" xml:space="preserve">
<style type="text/css">
	.st0{display:none;}
	.st1{display:inline;}
	.st2{fill:#FFFFFF;}
	.st3{fill:#507ABB;}
</style>
<g id="BLACK_BG" class="st0">
	<rect x="-1581.49" y="-288.13" class="st1" width="15439.3" height="5240.35"/>
</g>
<g id="Combination_Logo__x28_Color_White_FULL_x29_">
</g>
<g id="Combination_Logo__x28_Color_White_x29_">
</g>
<g id="Color_White_Logo">
	<g>
		<path class="st2" d="M721.34,632.6v343.16c0,0-156.29,60.83-343.81,0.64L721.34,632.6"/>
		<path class="st2" d="M605.51,727.03L362.86,969.68c0,0-153.53-67.5-243.56-242.65H605.51"/>
		<path class="st2" d="M456.84,711.9H113.67c0,0-60.83-156.29-0.64-343.81L456.84,711.9"/>
		<path class="st2" d="M362.4,596.08L119.75,353.42c0,0,67.5-153.53,242.65-243.56V596.08"/>
		<path class="st2" d="M377.53,447.4V104.24c0,0,156.29-60.83,343.81-0.64L377.53,447.4"/>
		<path class="st2" d="M493.36,352.97l242.65-242.65c0,0,153.53,67.5,243.56,242.65H493.36"/>
		<path class="st2" d="M642.03,368.1H985.2c0,0,60.83,156.29,0.64,343.81L642.03,368.1"/>
		<path class="st2" d="M736.46,483.92l242.65,242.65c0,0-67.5,153.53-242.65,243.56V483.92"/>
	</g>
	<g>
		<path class="st2" d="M431.35,460.06v127.32h-19.48V460.06H431.35z M453.23,587.38h-31.45v-16.92h30.42
			c9.68,0,17.73-1.82,24.14-5.47c6.41-3.65,11.19-8.97,14.36-15.98c3.16-7.01,4.74-15.49,4.74-25.46c0-9.97-1.58-18.41-4.74-25.34
			c-3.16-6.92-7.86-12.19-14.1-15.81c-6.24-3.62-14-5.43-23.28-5.43h-32.13v-16.92h33.33c12.53,0,23.27,2.54,32.21,7.6
			c8.94,5.07,15.82,12.36,20.64,21.88c4.81,9.51,7.22,20.85,7.22,34.01c0,13.22-2.42,24.6-7.26,34.14
			c-4.84,9.54-11.82,16.88-20.94,22C477.27,584.82,466.21,587.38,453.23,587.38z"/>
		<path class="st3" d="M537.05,587.38V460.06h28.28l28.03,73.4c0.74,2.11,1.62,4.8,2.65,8.07c1.03,3.28,2.08,6.79,3.16,10.55
			s2.12,7.43,3.12,11.02c1,3.59,1.84,6.78,2.52,9.57h-4.19c0.74-2.68,1.59-5.8,2.56-9.36c0.97-3.56,1.99-7.22,3.08-10.98
			s2.14-7.31,3.16-10.64c1.03-3.33,1.94-6.08,2.73-8.25l27.51-73.4h28.37v127.32h-19.22v-68.7c0-2.68,0.03-5.81,0.08-9.4
			s0.14-7.38,0.26-11.36c0.11-3.99,0.21-8.02,0.3-12.09c0.09-4.07,0.16-7.99,0.21-11.75h1.71c-1.25,4.22-2.55,8.47-3.89,12.77
			c-1.34,4.3-2.65,8.46-3.93,12.48c-1.28,4.02-2.49,7.69-3.63,11.02c-1.14,3.33-2.11,6.11-2.91,8.33l-26.23,68.7H594.3l-26.49-68.7
			c-0.85-2.16-1.84-4.88-2.95-8.16c-1.11-3.28-2.31-6.91-3.59-10.9c-1.28-3.99-2.62-8.16-4.02-12.52c-1.4-4.36-2.78-8.7-4.14-13.03
			h2.05c0.06,3.53,0.13,7.29,0.21,11.28c0.08,3.99,0.17,8,0.26,12.05c0.09,4.05,0.17,7.9,0.26,11.58c0.08,3.67,0.13,6.91,0.13,9.7
			v68.7H537.05z"/>
	</g>
</g>
<g id="White_Logo">
</g>
<g id="Combination_Logo__x28_Color_Black_FULL_x29_">
</g>
<g id="Combination_Logo__x28_Color_Black_x29_">
</g>
<g id="Color_Black_Logo">
</g>
<g id="Black_Logo">
</g>
<g id="Layer_5" class="st0">
</g>
<g id="Dimensions" class="st0">
</g>
</svg>
