<?xml version="1.0" encoding="UTF-8"?>
<svg id="Layer_3" data-name="Layer 3" xmlns="http://www.w3.org/2000/svg" viewBox="0 0 1080 1080">
  <defs>
    <style>
      .cls-1, .cls-2 {
        fill: #fff;
      }

      .cls-2 {
        font-family: Inter-Black, Inter;
        font-size: 175px;
        font-variation-settings: 'opsz' 14, 'wght' 900;
        font-weight: 800;
      }
    </style>
  </defs>
  <g>
    <path class="cls-1" d="M711.9,632.6v343.16s-156.29,60.83-343.81.64l343.81-343.81"/>
    <path class="cls-1" d="M596.08,727.03l-242.65,242.65s-153.53-67.5-243.56-242.65h486.21"/>
    <path class="cls-1" d="M447.4,711.9H104.24s-60.83-156.29-.64-343.81l343.81,343.81"/>
    <path class="cls-1" d="M352.97,596.08l-242.65-242.65s67.5-153.53,242.65-243.56v486.21"/>
    <path class="cls-1" d="M368.1,447.4V104.24s156.29-60.83,343.81-.64l-343.81,343.81"/>
    <path class="cls-1" d="M483.92,352.97l242.65-242.65s153.53,67.5,243.56,242.65h-486.21"/>
    <path class="cls-1" d="M632.6,368.1h343.16s60.83,156.29.64,343.81l-343.81-343.81"/>
    <path class="cls-1" d="M727.03,483.92l242.65,242.65s-67.5,153.53-242.65,243.56v-486.21"/>
  </g>
  <text class="cls-2" transform="translate(393.11 587.38)"><tspan x="0" y="0">DM</tspan></text>
</svg>